<svg width="40" height="40" viewBox="0 0 40 40" fill="none" xmlns="http://www.w3.org/2000/svg">
<circle cx="20" cy="20" r="20" fill="#0034BC"/>
<path d="M27.4079 22.171V14.9876C27.4079 11.0203 24.192 7.80429 20.2246 7.80429C16.2572 7.80429 13.0412 11.0203 13.0412 14.9876V22.171H9.44995V25.7623H30.9992V22.171H27.4079Z" fill="#0081FF"/>
<path d="M20.2254 32.9456C22.2091 32.9456 23.8166 31.3372 23.8166 29.3543H16.6333C16.6341 31.338 18.2417 32.9456 20.2254 32.9456Z" fill="#0081FF"/>
<path d="M28.4601 9.90936L24.8688 13.5006L23.5993 12.2311C22.8978 11.5296 21.7608 11.5296 21.0593 12.2311C20.3579 12.9325 20.3579 14.0696 21.0593 14.771L22.3289 16.0406L24.8688 18.5805L27.4087 16.0406L31 12.4493L28.4601 9.90936Z" fill="#AEE517"/>
</svg>
