<svg width="244" height="24" viewBox="0 0 244 24" fill="none" xmlns="http://www.w3.org/2000/svg">
<path d="M14.7219 8.63208C15.9045 9.78338 16.4984 11.3723 16.4984 13.3987V23.7552H13.3831V14.1906C13.3831 12.7736 12.9664 11.6744 12.1276 10.8826C11.2889 10.0907 10.1376 9.69482 8.66333 9.69482C7.07966 9.71566 5.79292 10.1949 4.79791 11.1378C3.80291 12.0755 3.24029 13.2945 3.11005 14.7949V23.7604H0V7.00674H3.11005V10.5544C4.2926 8.16844 6.53266 6.95464 9.83546 6.91297C11.9088 6.90776 13.5394 7.48079 14.7219 8.63208Z" fill="#0034BC"/>
<path d="M35.3097 7.96526C36.6069 8.68417 37.6227 9.67918 38.3521 10.9607C39.0814 12.237 39.4461 13.7009 39.4461 15.3471C39.4461 16.9933 39.0814 18.4623 38.3521 19.7491C37.6227 21.0358 36.6121 22.0412 35.3097 22.7601C34.0126 23.479 32.5279 23.8385 30.8609 23.8385C29.173 23.8385 27.6779 23.479 26.3807 22.7601C25.0836 22.0412 24.0677 21.0462 23.3384 19.7647C22.6091 18.4884 22.2444 17.0141 22.2444 15.3471C22.2444 13.7009 22.6091 12.237 23.3384 10.9607C24.0677 9.68439 25.0784 8.68417 26.3807 7.96526C27.6779 7.24636 29.173 6.8869 30.8609 6.8869C32.5279 6.89211 34.0126 7.25157 35.3097 7.96526ZM27.9279 10.2158C27.0736 10.7211 26.4068 11.4243 25.9327 12.3204C25.4586 13.2164 25.219 14.2375 25.219 15.3783C25.219 16.54 25.4586 17.5767 25.9327 18.4832C26.4068 19.3896 27.0736 20.0929 27.9279 20.5878C28.7823 21.0827 29.7617 21.3327 30.8556 21.3327C31.934 21.3327 32.8978 21.0827 33.7521 20.5878C34.6065 20.0929 35.2733 19.3896 35.7473 18.4832C36.2214 17.5767 36.461 16.54 36.461 15.3783C36.461 14.2375 36.2214 13.2216 35.7473 12.3204C35.2733 11.4243 34.6065 10.7211 33.7521 10.2158C32.8978 9.71044 31.9288 9.45516 30.8556 9.45516C29.7617 9.45516 28.7875 9.71044 27.9279 10.2158Z" fill="#0034BC"/>
<path d="M53.4335 22.7654C52.1467 23.5885 50.834 24 49.5055 24C48.1771 24 47.0988 23.6041 46.2757 22.8123C45.4526 22.0204 45.041 20.8222 45.041 19.2177V10.5492H42.6655V7.68919H45.041V3.19342H48.0208V7.68919H53.1522V10.5492H48.0208V18.6812C48.0208 19.6084 48.1876 20.2752 48.5262 20.6764C48.8648 21.0775 49.3701 21.2807 50.0473 21.2807C50.8496 21.2807 51.7144 21.015 52.6469 20.4888L53.4335 22.7654Z" fill="#0034BC"/>
<path d="M59.1951 7.00153H62.1385V23.7552H59.1951V7.00153Z" fill="#0034BC"/>
<path d="M73.3493 3.63099C72.8439 4.09464 72.5887 4.76146 72.5887 5.62623V7.81419H77.2147V10.6794H72.5887V24H69.6453V10.6794H67.4574V7.81419H69.6453V6.00651C69.6453 4.78228 69.9058 3.7404 70.4215 2.88604C70.9373 2.03169 71.6197 1.38572 72.4637 0.953337C73.3076 0.520952 74.214 0.302155 75.1882 0.302155C76.1155 0.302155 77.0897 0.557414 78.1003 1.06273L77.4022 3.4695C76.6416 3.11005 75.9227 2.93293 75.2507 2.93293C74.4901 2.93814 73.8598 3.16735 73.3493 3.63099Z" fill="#0034BC"/>
<path d="M84.3256 7.24115H81.3822V23.9948H84.3256V7.24115Z" fill="#0034BC"/>
<path d="M98.7818 9.73125C97.6826 9.73125 96.7085 9.9709 95.8541 10.445C94.9998 10.9242 94.3278 11.5962 93.8433 12.4662C93.3588 13.3362 93.114 14.3416 93.114 15.4825C93.114 16.6234 93.3536 17.6288 93.8276 18.4988C94.3017 19.3688 94.9581 20.0512 95.7916 20.5357C96.6251 21.0202 97.5837 21.265 98.6568 21.265C99.7352 21.265 100.704 21.0879 101.569 20.7337C102.434 20.3794 103.153 19.8741 103.72 19.2073L105.398 20.8899C104.637 21.8224 103.674 22.5413 102.501 23.0362C101.329 23.5363 100.006 23.7812 98.5266 23.7812C96.9012 23.7812 95.453 23.4269 94.1871 22.7237C92.9212 22.0204 91.9314 21.041 91.2281 19.7855C90.5196 18.53 90.1654 17.0922 90.1654 15.4773C90.1654 13.8571 90.5196 12.4193 91.2281 11.1534C91.9366 9.88754 92.9212 8.90295 94.1871 8.19967C95.453 7.49639 96.9012 7.14215 98.5266 7.14215C99.9436 7.14215 101.215 7.35574 102.345 7.77771C103.476 8.20488 104.418 8.81961 105.179 9.62707L103.564 11.6171C102.231 10.3668 100.636 9.73125 98.7818 9.73125Z" fill="#0034BC"/>
<path d="M121.063 23.7239V21.3796C119.818 23.0258 117.864 23.8489 115.202 23.8489C114.04 23.8489 113.019 23.6301 112.144 23.1821C111.269 22.7393 110.592 22.1246 110.118 21.3432C109.644 20.5617 109.404 19.6866 109.404 18.7124C109.404 17.2121 109.956 16.0243 111.066 15.1491C112.175 14.2739 113.723 13.8259 115.707 13.8051H121.026V13.0132C121.026 11.8307 120.662 10.919 119.932 10.2731C119.203 9.62709 118.145 9.30931 116.749 9.30931C115.061 9.30931 113.337 9.9136 111.587 11.117L110.352 9.09052C111.555 8.3091 112.67 7.74648 113.691 7.39744C114.718 7.04841 115.937 6.8765 117.348 6.8765C119.437 6.8765 121.052 7.38701 122.193 8.41328C123.334 9.43954 123.912 10.8669 123.933 12.7059L123.964 23.7291H121.063V23.7239ZM119.307 20.4159C120.266 19.7491 120.844 18.8687 121.031 17.7695V16.092H116.124C114.796 16.092 113.806 16.2952 113.165 16.6963C112.519 17.0975 112.201 17.733 112.201 18.5978C112.201 19.4626 112.53 20.1502 113.186 20.6555C113.837 21.1608 114.718 21.4161 115.817 21.4161C117.176 21.4161 118.343 21.0827 119.307 20.4159Z" fill="#0034BC"/>
<path d="M147.881 10.0074C147.397 10.0074 147.006 10.0959 146.709 10.2783C146.412 10.4606 146.266 10.7263 146.266 11.0857C146.266 11.466 146.501 11.7734 146.964 12.0026C147.428 12.237 148.168 12.4871 149.183 12.7632C150.408 13.1226 151.429 13.4769 152.241 13.8259C153.054 14.1749 153.757 14.7011 154.346 15.4096C154.935 16.1181 155.232 17.0401 155.232 18.181C155.232 19.9105 154.56 21.2702 153.221 22.2496C151.877 23.2342 150.132 23.7239 147.98 23.7239C146.521 23.7239 145.13 23.5207 143.797 23.104C142.468 22.6924 141.286 22.0881 140.249 21.2806L142.02 17.6392C142.989 18.3165 144.01 18.8374 145.078 19.2073C146.146 19.5771 147.152 19.7595 148.105 19.7595C148.652 19.7595 149.09 19.6709 149.418 19.4886C149.746 19.3115 149.908 19.051 149.908 18.7124C149.908 18.2904 149.668 17.9622 149.194 17.733C148.72 17.4986 147.975 17.2485 146.959 16.9724C145.756 16.613 144.761 16.2587 143.979 15.9097C143.198 15.5607 142.515 15.0397 141.937 14.3416C141.354 13.6436 141.067 12.7371 141.067 11.6171C141.067 9.88755 141.723 8.52787 143.031 7.54849C144.339 6.5639 146.032 6.07422 148.1 6.07422C149.345 6.07422 150.574 6.24613 151.788 6.57954C153.002 6.91815 154.148 7.41304 155.226 8.06944L153.325 11.7421C151.111 10.5908 149.293 10.0074 147.881 10.0074Z" fill="#0081FF"/>
<path d="M174.204 7.74128C175.512 8.83006 176.179 10.3564 176.2 12.3152V23.4634H170.657V21.5307C169.516 22.9894 167.797 23.7187 165.494 23.7187C163.676 23.7187 162.249 23.229 161.202 22.2444C160.155 21.2598 159.634 19.9679 159.634 18.3634C159.634 16.738 160.196 15.4721 161.327 14.5605C162.457 13.654 164.077 13.1904 166.187 13.1643H170.652V12.9716C170.652 12.1485 170.37 11.5129 169.813 11.0701C169.25 10.6273 168.443 10.4033 167.39 10.4033C166.672 10.4033 165.864 10.5179 164.968 10.7524C164.072 10.9868 163.166 11.3254 162.259 11.7682L160.707 7.96529C162.103 7.32973 163.436 6.86089 164.713 6.55353C165.989 6.24617 167.318 6.09509 168.688 6.09509C171.058 6.11072 172.897 6.65772 174.204 7.74128ZM169.453 19.275C170.089 18.8635 170.485 18.3321 170.657 17.6757V16.1858H167.302C165.718 16.1858 164.926 16.7797 164.926 17.957C164.926 18.5509 165.135 19.0198 165.546 19.3688C165.958 19.7178 166.521 19.8897 167.239 19.8897C168.083 19.8897 168.823 19.6866 169.453 19.275Z" fill="#0081FF"/>
<path d="M198.309 6.33472V23.4686H192.672V20.6816C191.51 22.6664 189.682 23.6822 187.192 23.7239C185.332 23.7239 183.852 23.13 182.743 21.9371C181.633 20.7441 181.081 19.1552 181.081 17.1704V6.33993H186.718V15.5555C186.718 16.5244 186.968 17.285 187.463 17.8372C187.957 18.3842 188.629 18.6603 189.473 18.6603C190.463 18.6395 191.245 18.2748 191.818 17.5663C192.385 16.8578 192.672 15.9358 192.672 14.7949V6.33993H198.309V6.33472Z" fill="#0081FF"/>
<path d="M221.496 0V23.5051H215.859V21.2859C215.265 22.0881 214.547 22.6976 213.687 23.1092C212.833 23.5207 211.864 23.7291 210.79 23.7291C209.207 23.7291 207.811 23.3592 206.607 22.6195C205.404 21.8798 204.471 20.8431 203.805 19.499C203.138 18.1602 202.804 16.613 202.804 14.8574C202.804 13.1279 203.133 11.6067 203.789 10.2991C204.445 8.99154 205.362 7.97568 206.545 7.25678C207.727 6.53787 209.097 6.17843 210.66 6.17843C211.759 6.17843 212.744 6.39202 213.619 6.81399C214.494 7.23595 215.239 7.84025 215.854 8.62167V0.00521455H221.496V0ZM214.843 18.1029C215.521 17.311 215.859 16.2796 215.859 15.0137C215.859 13.7269 215.521 12.6903 214.843 11.9088C214.166 11.1274 213.281 10.7367 212.181 10.7367C211.082 10.7367 210.191 11.1326 209.504 11.9245C208.816 12.7163 208.472 13.7478 208.472 15.0137C208.472 16.2796 208.816 17.311 209.504 18.1029C210.191 18.8947 211.082 19.2906 212.181 19.2906C213.281 19.2854 214.166 18.8947 214.843 18.1029Z" fill="#0081FF"/>
<path d="M241.511 8.67896C243.011 10.3252 243.761 12.5861 243.761 15.4565C243.761 15.8993 243.751 16.2379 243.73 16.4723H231.821C232.097 17.4465 232.571 18.1862 233.249 18.7072C233.926 19.2229 234.749 19.4834 235.718 19.4834C236.458 19.4834 237.171 19.3375 237.854 19.0406C238.541 18.7437 239.166 18.3113 239.74 17.7434L242.683 20.6868C241.797 21.6818 240.724 22.4319 239.469 22.9529C238.213 23.4686 236.791 23.7291 235.207 23.7291C233.368 23.7291 231.764 23.3697 230.394 22.6507C229.018 21.9318 227.971 20.9212 227.242 19.6084C226.513 18.3008 226.148 16.7797 226.148 15.0449C226.148 13.2945 226.518 11.7473 227.258 10.4033C227.997 9.06446 229.044 8.02778 230.394 7.29846C231.743 6.56913 233.306 6.20447 235.082 6.20447C237.869 6.20447 240.016 7.02756 241.511 8.67896ZM238.281 13.4612C238.281 12.4714 237.989 11.6744 237.411 11.0701C236.827 10.4658 236.067 10.1689 235.114 10.1689C234.228 10.1689 233.483 10.4658 232.879 11.0545C232.274 11.6484 231.878 12.4506 231.691 13.4612H238.281Z" fill="#0081FF"/>
<path d="M132.112 18.6395C133.778 18.6395 135.128 17.289 135.128 15.6232C135.128 13.9573 133.778 12.6069 132.112 12.6069C130.446 12.6069 129.096 13.9573 129.096 15.6232C129.096 17.289 130.446 18.6395 132.112 18.6395Z" fill="#AEE517"/>
<path d="M62.1385 1.44824H59.1951V4.39159H62.1385V1.44824Z" fill="#0081FF"/>
<path d="M84.3256 1.44824H81.3822V4.39159H84.3256V1.44824Z" fill="#0081FF"/>
<path d="M191.859 0.619934H187.525V4.95421H191.859V0.619934Z" fill="#0081FF"/>
</svg>
